<svg id="Layer_1" data-name="Layer 1" xmlns="http://www.w3.org/2000/svg" xmlns:xlink="http://www.w3.org/1999/xlink" viewBox="0 0 512 512"><defs><linearGradient id="linear-gradient" x1="256" y1="511.99" x2="256" y2="0.01" gradientUnits="userSpaceOnUse"><stop offset="0" stop-color="#231f20"/><stop offset="1" stop-color="#58595b"/></linearGradient></defs><title>user</title><path d="M421.87,371.43c-49.58,0-90.13-23.83-90.13-52.93s17.53-42.05,29.24-53c12.38-11.52,29.25-54,29.25-120V120c0-66-54.62-120-121.39-120h-19.9C182.2,0,127.59,54,127.59,120v25.58c0,66,16.16,104.38,31.68,120,12.24,12.29,31.71,23.81,31.71,53s-43,52.93-95.47,52.93S0,403.08,0,441.79c0,95.49,512,91.68,512,0C512,403.08,471.41,371.43,421.87,371.43Z" fill-rule="evenodd" fill="#06ae41"/></svg>